<?xml version="1.0" standalone="no"?>
<!DOCTYPE svg PUBLIC "-//W3C//DTD SVG 20010904//EN"
 "http://www.w3.org/TR/2001/REC-SVG-20010904/DTD/svg10.dtd">
<svg version="1.0" xmlns="http://www.w3.org/2000/svg"
 width="840.000000pt" height="427.000000pt" viewBox="0 0 840.000000 427.000000"
 preserveAspectRatio="xMidYMid meet">
<metadata>
Created by potrace 1.16, written by Peter Selinger 2001-2019
</metadata>
<g transform="translate(0.000000,427.000000) scale(0.100000,-0.100000)"
fill="#000000" stroke="none">
<path d="M4148 3851 c-104 -34 -138 -93 -138 -238 0 -134 -12 -153 -134 -205
-50 -21 -100 -38 -113 -38 -37 0 -73 23 -138 90 -33 34 -72 68 -87 76 -34 18
-109 18 -151 0 -18 -7 -84 -67 -149 -132 -106 -109 -117 -123 -123 -166 -11
-71 8 -111 96 -205 73 -77 79 -87 79 -126 0 -53 -59 -194 -95 -224 -23 -20
-37 -23 -118 -23 -147 0 -209 -27 -247 -105 -17 -36 -20 -62 -20 -201 0 -180
7 -204 74 -259 36 -29 42 -30 161 -35 118 -5 125 -6 152 -33 36 -33 93 -170
93 -221 0 -32 -10 -47 -79 -121 -78 -82 -101 -124 -101 -182 0 -34 11 -34 78
-1 35 16 98 37 141 46 l78 16 -5 46 c-2 25 3 84 12 131 l16 86 -44 94 c-79
166 -91 226 -90 439 0 172 2 191 28 275 143 469 565 769 1041 742 447 -26 821
-336 936 -775 28 -104 35 -300 16 -407 -12 -69 -12 -87 1 -145 32 -140 -17
-286 -141 -416 l-70 -74 85 0 c92 0 174 -18 256 -55 l52 -24 0 42 c0 52 -19
83 -103 169 -87 90 -90 106 -39 229 53 128 69 139 209 139 124 0 168 17 210
82 27 40 28 47 31 196 4 177 -6 221 -63 271 -45 39 -91 51 -202 51 -87 0 -94
2 -123 28 -30 27 -100 177 -100 214 0 31 18 59 91 134 38 39 73 83 79 98 14
38 12 111 -4 149 -17 40 -222 242 -260 256 -40 16 -112 13 -149 -5 -18 -9 -64
-47 -103 -85 -89 -88 -112 -94 -212 -50 -39 17 -75 31 -80 31 -6 0 -24 16 -41
35 -30 35 -31 38 -31 136 0 106 -13 154 -53 197 -46 49 -72 56 -232 59 -82 1
-162 -2 -177 -6z"/>
<path d="M4135 3305 c-298 -55 -554 -248 -688 -518 -132 -266 -136 -589 -10
-840 l24 -48 39 59 39 58 -24 76 c-71 223 -57 427 44 632 215 438 750 600
1175 354 92 -54 239 -200 294 -293 85 -145 130 -349 112 -505 -8 -74 -8 -75
18 -97 l27 -23 43 48 44 47 -5 135 c-9 259 -91 451 -271 638 -218 227 -552
334 -861 277z"/>
<path d="M4349 2675 c-113 -28 -373 -159 -474 -239 l-28 -23 119 -42 c418
-149 707 -146 770 6 44 104 -38 267 -152 301 -53 16 -164 14 -235 -3z"/>
<path d="M2613 2224 c3 -10 33 -140 67 -289 34 -148 95 -416 136 -595 41 -179
86 -376 99 -438 32 -147 75 -231 162 -312 35 -33 86 -71 113 -85 149 -76 332
-73 482 7 74 39 177 147 212 223 26 54 55 166 56 211 0 17 8 22 43 27 23 3 73
2 112 -3 38 -5 71 -8 72 -6 8 8 -66 80 -99 97 -37 19 -51 20 -162 14 -145 -8
-258 5 -334 40 l-54 25 25 -43 c30 -51 104 -110 159 -126 40 -12 40 -13 34
-53 -18 -110 -105 -219 -202 -252 -60 -20 -157 -21 -217 0 -56 19 -129 81
-161 137 -101 174 -8 400 187 454 31 9 56 19 54 22 -23 41 -38 91 -39 132 l-1
51 -41 -6 c-60 -9 -176 -69 -234 -121 l-50 -45 -20 87 c-11 49 -48 212 -83
363 l-62 275 -95 85 c-147 133 -165 147 -159 124z"/>
<path d="M4025 2149 c-80 -12 -179 -42 -271 -84 -243 -111 -349 -395 -234
-631 36 -73 91 -126 169 -162 62 -29 149 -34 306 -18 100 10 152 -2 205 -50
98 -89 117 -316 44 -544 -13 -41 -22 -75 -20 -77 1 -2 43 59 93 135 146 220
193 328 193 443 0 88 -30 181 -80 251 -69 97 -169 148 -329 167 -98 12 -121
20 -158 54 -65 59 6 172 131 208 19 6 109 5 228 -2 423 -25 648 33 723 186 15
30 26 57 24 59 -2 2 -35 -3 -74 -12 -39 -8 -122 -15 -190 -16 -111 -1 -130 2
-250 37 -211 61 -360 78 -510 56z"/>
<path d="M5191 1982 c-21 -50 -128 -153 -207 -200 -126 -74 -324 -138 -487
-158 l-58 -6 28 -18 c35 -21 80 -73 101 -117 9 -18 23 -33 31 -33 9 0 68 18
131 40 63 21 118 36 122 32 3 -4 31 -70 62 -147 31 -77 96 -237 144 -355 86
-208 90 -215 118 -218 35 -3 84 30 83 56 0 9 -33 100 -73 202 l-73 185 26 7
c34 10 123 -7 177 -32 53 -26 119 -97 147 -158 15 -34 21 -68 21 -122 1 -66
-4 -85 -32 -143 -93 -189 -336 -237 -495 -96 -65 56 -99 131 -104 227 -4 63
-13 100 -55 205 l-51 128 -29 -44 c-48 -74 -71 -152 -76 -258 -7 -159 43 -287
157 -399 106 -105 221 -151 372 -151 150 0 264 47 369 151 106 105 160 232
160 375 0 249 -171 463 -416 521 -67 16 -195 15 -235 -1 -13 -5 -23 10 -46 68
l-31 75 61 48 c117 94 181 207 175 313 l-3 56 -14 -33z"/>
</g>
</svg>
