<?xml version="1.0" standalone="no"?>
<!DOCTYPE svg PUBLIC "-//W3C//DTD SVG 20010904//EN"
 "http://www.w3.org/TR/2001/REC-SVG-20010904/DTD/svg10.dtd">
<svg version="1.0" xmlns="http://www.w3.org/2000/svg"
 width="480.000000pt" height="270.000000pt" viewBox="0 0 480.000000 270.000000"
 preserveAspectRatio="xMidYMid meet">
<metadata>
Created by potrace 1.16, written by Peter Selinger 2001-2019
</metadata>
<g transform="translate(0.000000,270.000000) scale(0.100000,-0.100000)"
fill="#000000" stroke="none">
<path d="M2755 2499 c-10 -30 7 -43 122 -94 91 -39 110 -45 131 -36 20 10 49
4 170 -34 151 -47 336 -113 463 -165 91 -38 103 -31 18 10 -35 16 -80 39 -99
50 -19 11 -42 20 -51 20 -33 0 -200 69 -217 89 -25 31 -292 88 -292 62 0 -6
-5 -11 -11 -11 -7 0 -9 9 -6 21 5 17 -3 24 -39 39 -24 11 -52 16 -61 13 -11
-4 -14 -3 -9 5 5 8 -2 12 -21 12 -15 0 -42 9 -60 20 -32 19 -32 19 -38 -1z"/>
<path d="M2680 2483 c-14 -9 -27 -20 -30 -23 -3 -3 -24 -12 -47 -20 -24 -7
-43 -16 -43 -20 0 -14 -82 -42 -105 -36 -14 4 -41 0 -60 -8 -31 -13 -35 -13
-35 0 0 8 -4 12 -10 9 -18 -11 -10 -35 15 -45 24 -9 53 -1 167 45 12 5 18 0
21 -17 l4 -23 2 23 c0 13 6 20 11 17 12 -7 13 -63 2 -120 l-7 -40 -6 50 c-5
39 -6 31 -6 -40 0 -49 -4 -111 -8 -136 -7 -46 -7 -46 -48 -47 -60 -1 -250 -21
-255 -27 -7 -7 26 -6 140 4 111 10 135 7 143 -20 4 -10 12 -19 19 -19 21 0 47
-35 40 -54 -4 -10 -17 -16 -35 -16 -16 0 -29 -4 -29 -9 0 -9 -56 -21 -97 -21
-13 0 -23 -4 -23 -9 0 -5 -17 -12 -37 -15 -52 -8 -65 -11 -85 -20 -10 -5 -25
-6 -33 -3 -8 4 -17 2 -20 -4 -4 -5 -18 -9 -33 -8 -15 1 -60 -2 -100 -5 -41 -3
-90 -2 -110 3 -59 15 -157 18 -157 4 0 -20 -13 -25 -34 -13 -27 14 -26 24 2
39 l22 12 -24 -5 c-14 -3 -30 -1 -35 3 -6 5 -25 11 -43 14 -36 7 -48 -9 -26
-35 10 -11 11 -18 4 -23 -6 -3 -11 -1 -11 4 0 6 -10 11 -22 11 -19 0 -23 6
-25 36 -1 20 -13 68 -27 107 -14 40 -28 86 -31 102 -3 17 -15 55 -26 85 l-20
55 7 -65 c3 -36 8 -78 9 -95 1 -16 6 -60 10 -97 l8 -68 -33 0 c-25 0 -31 -3
-26 -16 5 -12 2 -15 -9 -10 -11 4 -39 -17 -85 -62 -74 -72 -82 -94 -58 -147 9
-21 9 -29 -5 -42 -14 -15 -19 -14 -60 5 -25 12 -81 30 -125 41 -335 86 -665
-102 -768 -437 -62 -199 -4 -445 138 -597 98 -106 200 -163 372 -210 32 -9 56
-18 53 -21 -3 -3 -40 -14 -84 -25 -79 -20 -231 -85 -220 -95 3 -3 19 2 36 11
35 17 42 4 10 -18 -13 -9 -16 -17 -10 -22 6 -3 11 -2 11 3 0 5 11 10 24 10 30
0 69 -34 60 -51 -4 -7 -4 -9 1 -5 4 4 14 0 22 -10 8 -9 5 2 -7 25 -11 23 -20
46 -20 50 0 21 159 66 215 61 34 -3 39 -6 42 -33 6 -42 11 -42 19 0 l7 38 71
-6 c39 -3 94 -13 121 -23 49 -16 88 -46 79 -58 -2 -3 1 -2 8 3 7 7 18 6 31 -1
15 -7 22 -7 28 3 7 11 12 9 25 -9 12 -18 19 -21 28 -12 24 25 -120 110 -236
138 -40 10 -72 23 -71 28 1 5 30 17 65 26 113 32 186 75 274 162 131 131 180
257 171 445 -3 58 -9 121 -13 140 -5 25 -3 37 8 45 33 25 37 48 16 89 -10 21
-17 41 -14 44 3 3 40 29 83 58 43 29 77 58 75 64 -1 7 2 10 7 6 6 -3 60 25
121 64 92 57 121 70 168 76 31 3 134 21 227 40 94 19 224 41 290 50 66 9 136
21 156 27 66 19 81 10 96 -56 15 -65 27 -86 52 -86 8 0 54 -14 101 -31 l85
-30 -51 -55 c-63 -69 -109 -144 -142 -232 -33 -90 -42 -257 -18 -352 54 -213
216 -382 441 -459 l98 -34 -104 -36 c-125 -43 -207 -93 -264 -160 l-20 -24 26
16 c14 10 29 14 33 10 4 -4 4 0 0 10 -4 13 -2 16 9 11 8 -3 14 -13 12 -22 -1
-9 0 -11 2 -5 3 7 9 13 14 13 6 0 7 5 4 10 -3 6 0 11 7 12 7 0 18 2 23 2 6 1
27 11 48 23 34 21 137 56 143 50 2 -2 15 -36 28 -77 l26 -75 -5 55 c-3 30 -8
67 -11 82 -6 25 -4 27 41 34 58 8 204 -1 217 -14 8 -8 -7 -81 -29 -139 -3 -7
-1 -13 4 -13 6 0 21 31 34 70 19 57 27 70 45 70 30 0 156 -65 193 -99 17 -16
32 -24 34 -18 1 5 14 11 28 12 13 1 23 5 22 9 -6 16 -99 89 -146 113 -62 31
-183 73 -210 73 -33 0 -14 9 64 31 206 57 357 198 437 407 24 60 26 81 26 207
1 128 -2 147 -27 214 -15 41 -39 95 -54 120 -27 47 -131 156 -192 201 l-33 25
25 58 c22 47 30 57 51 57 14 0 28 5 32 11 5 8 10 6 16 -5 11 -19 34 -21 45 -3
5 9 65 19 183 31 223 23 250 29 250 61 0 27 -24 55 -48 56 -9 0 -37 0 -61 -1
-24 -1 -41 2 -38 7 4 6 -17 2 -46 -8 -64 -23 -83 -23 -91 -4 -4 10 -19 15 -49
15 -27 0 -49 6 -57 15 -7 8 -9 15 -5 15 4 0 -1 12 -10 27 -16 24 -21 48 -24
115 -1 21 -7 29 -26 34 -30 7 -59 -12 -50 -34 3 -8 3 -29 -1 -47 -10 -53 -83
-70 -389 -90 -137 -9 -257 -19 -265 -22 -8 -3 -43 -5 -77 -5 -38 1 -63 -3 -63
-9 0 -7 -28 -8 -82 -5 -96 7 -219 14 -266 15 -28 1 -33 4 -30 23 2 14 11 22
26 23 12 1 27 6 32 11 12 12 2 74 -11 74 -5 0 -9 7 -9 17 0 13 -4 12 -19 -6
-18 -21 -21 -21 -54 -7 -32 13 -37 13 -52 -4 -9 -10 -34 -20 -56 -22 -34 -3
-39 -1 -39 18 0 31 70 396 79 412 4 8 21 -31 40 -95 45 -151 92 -285 85 -243
-4 19 -26 96 -50 170 -24 74 -44 136 -44 138 0 1 6 2 14 2 17 0 31 18 22 27
-3 3 -12 0 -21 -7 -12 -10 -16 -8 -25 15 -13 35 -13 52 3 58 6 3 7 6 2 6 -6 1
-22 -7 -35 -16z m1266 -557 c10 -11 11 -15 1 -19 -8 -3 -7 -10 7 -26 11 -11
17 -21 15 -22 -2 0 -67 -2 -144 -4 -124 -3 -307 -14 -505 -30 -62 -5 -64 -5
-35 9 l30 15 -32 1 c-18 0 -33 5 -33 11 0 6 8 8 18 5 53 -15 84 -18 78 -7 -7
11 -1 12 69 16 17 1 75 7 130 13 55 7 152 15 216 18 66 3 127 12 140 19 31 17
28 17 45 1z m-1278 -39 c4 -20 6 -19 -113 -46 -182 -41 -349 -62 -540 -68
-192 -6 -443 9 -474 28 -16 9 8 8 239 -6 47 -3 166 -1 265 5 156 8 199 14 320
46 140 37 271 64 290 60 6 -2 11 -10 13 -19z m1091 -52 c-11 -11 -291 -47
-504 -65 -178 -15 -226 -22 -195 -30 28 -7 41 -40 15 -40 -8 0 -18 7 -21 15
-3 8 -31 21 -62 31 -53 15 -56 17 -37 31 54 40 103 55 162 48 32 -4 59 -8 61
-10 5 -5 -101 -17 -124 -15 -24 3 -84 -19 -84 -31 0 -11 4 -11 32 0 45 19 773
82 757 66z m-1270 -81 c3 -3 -1 -9 -9 -14 -10 -7 -11 -10 -2 -10 6 0 12 -3 12
-7 0 -5 -19 -9 -42 -11 -23 -1 -47 -6 -52 -11 -6 -4 -38 -13 -71 -20 -33 -6
-86 -18 -117 -25 -46 -11 -56 -12 -52 -1 3 8 21 21 40 30 19 9 45 26 59 39 28
26 114 43 125 26 4 -7 15 -7 31 -1 16 7 19 10 7 10 -9 1 -19 5 -22 10 -6 9 83
-5 93 -15z m970 -36 l8 -22 12 22 c14 25 36 30 27 6 -6 -15 2 -16 81 -9 100 8
119 8 151 0 18 -4 22 -2 16 7 -5 10 -4 10 5 2 9 -8 9 -18 1 -39 -9 -24 -14
-27 -43 -21 -193 39 -343 24 -488 -50 l-46 -23 -20 22 c-30 35 -39 52 -22 41
10 -5 8 0 -4 19 l-17 27 43 0 c24 0 47 4 52 9 16 15 85 25 85 12 0 -6 7 -11
16 -11 8 0 12 5 9 10 -10 17 5 11 27 -10 23 -21 41 -24 73 -10 14 7 8 8 -20 4
-30 -4 -36 -3 -25 5 8 6 11 11 5 12 -9 1 34 14 58 18 4 0 11 -9 16 -21z
m-2486 -85 c3 -5 8 -114 12 -243 7 -214 6 -234 -8 -222 -31 26 -227 373 -227
401 0 15 32 30 113 51 80 21 104 24 110 13z m141 -8 c72 -19 156 -55 156 -66
0 -36 -207 -369 -230 -369 -8 0 -15 83 -26 318 l-7 132 25 0 c13 0 50 -7 82
-15z m679 5 c42 0 77 -4 77 -8 0 -8 -86 -72 -97 -72 -3 0 -41 -22 -84 -50 -43
-27 -82 -50 -87 -50 -9 0 -44 36 -57 59 -6 10 -1 12 25 6 23 -5 30 -4 26 4 -4
6 -15 11 -24 11 -9 0 -37 12 -61 25 -41 24 -45 25 -68 9 -36 -23 -39 -10 -7
36 l29 42 125 -6 c69 -3 160 -6 203 -6z m1880 -15 c9 -4 17 -15 17 -24 0 -49
-148 -408 -167 -404 -11 2 -113 417 -105 425 4 3 18 9 32 11 33 7 200 1 223
-8z m-241 -215 c26 -107 46 -199 45 -203 -2 -8 -196 246 -242 316 l-16 25 63
31 c100 49 95 55 150 -169z m-2692 105 c0 -3 46 -89 101 -191 56 -102 99 -187
97 -190 -12 -12 -408 222 -408 241 0 20 87 123 133 156 40 29 40 29 59 10 10
-11 18 -23 18 -26z m3156 7 c49 -36 68 -58 60 -71 -13 -20 -246 -222 -246
-213 0 6 14 41 31 79 17 37 37 84 44 103 27 73 55 130 63 130 5 0 27 -13 48
-28z m-2462 -72 c25 -27 46 -55 46 -62 0 -12 -270 -187 -314 -204 -10 -4 28
62 90 155 60 88 113 161 120 161 6 0 32 -22 58 -50z m1802 -122 c136 -138 197
-218 167 -218 -38 0 -416 115 -421 129 -11 28 99 211 127 211 4 0 61 -55 127
-122z m810 16 c23 -43 46 -91 49 -105 6 -26 5 -27 -107 -57 -138 -38 -310 -82
-321 -82 -5 0 -7 8 -5 19 3 21 317 313 332 308 5 -2 28 -39 52 -83z m-3328
-131 c106 -64 195 -120 198 -125 3 -4 -33 -8 -80 -8 -94 0 -388 20 -395 26 -3
3 0 33 6 68 13 74 47 156 65 156 7 0 100 -52 206 -117z m845 35 c22 -59 37
-119 37 -145 l0 -23 -207 0 -208 0 55 35 c234 148 277 173 291 174 10 1 22
-15 32 -41z m1850 -185 c9 -3 17 -9 17 -13 0 -5 -104 -34 -231 -65 -182 -44
-233 -54 -240 -44 -14 23 -21 109 -14 167 12 100 -3 98 237 25 117 -36 221
-68 231 -70z m701 86 c11 -58 -1 -209 -18 -226 -4 -4 -299 67 -413 99 -74 21
-81 18 242 109 94 26 173 48 176 48 4 1 9 -13 13 -30z m-3419 -94 c121 -9 221
-17 223 -19 12 -13 -74 -78 -218 -165 l-165 -100 -22 24 c-31 36 -64 131 -70
207 -5 63 -4 68 14 68 11 0 118 -7 238 -15z m908 -83 c-1 -55 -27 -162 -39
-162 -15 0 -434 214 -434 221 0 6 101 8 238 7 l237 -3 -2 -63z m1821 -4 c-16
-18 -92 -94 -169 -169 -159 -156 -145 -153 -214 -49 -47 71 -74 131 -64 141 5
5 69 22 143 40 74 17 169 40 210 49 41 10 86 19 99 19 l25 1 -30 -32z m397
-13 c265 -66 259 -64 259 -82 0 -50 -102 -201 -129 -192 -17 6 -331 299 -331
310 0 13 -1 13 201 -36z m-2620 -9 c248 -115 350 -167 347 -176 -15 -44 -148
-185 -187 -198 -17 -6 -261 381 -261 413 0 8 3 7 101 -39z m2285 -3 c-3 -10
-28 -107 -55 -217 -27 -109 -53 -202 -58 -207 -18 -18 -223 88 -223 116 0 14
318 325 332 325 5 0 7 -8 4 -17z m-2482 -15 c3 -13 8 -79 11 -148 3 -69 8
-162 11 -207 l6 -83 -42 0 c-48 0 -166 32 -194 53 -18 13 -14 24 84 210 57
109 107 197 112 197 4 0 10 -10 12 -22z m122 -71 c78 -113 194 -297 194 -307
0 -16 -116 -52 -186 -57 l-71 -6 -6 63 c-11 99 -8 402 3 395 5 -3 35 -43 66
-88z m2558 23 c44 -38 119 -106 166 -150 l85 -80 -40 -36 c-43 -40 -157 -98
-177 -92 -14 5 -140 406 -132 420 9 14 14 11 98 -62z m-65 -164 c44 -139 59
-202 52 -209 -13 -13 -176 -22 -226 -13 -35 7 -36 9 -29 39 12 56 104 389 110
399 13 21 33 -25 93 -216z m-2809 164 c-12 -17 -20 -34 -16 -37 3 -3 33 10 66
30 33 20 60 34 60 30 0 -13 -172 -333 -180 -333 -15 0 -125 86 -158 124 -18
21 -31 43 -29 49 4 12 269 177 276 171 2 -1 -7 -17 -19 -34z"/>
</g>
</svg>
