<?xml version="1.0" standalone="no"?>
<!DOCTYPE svg PUBLIC "-//W3C//DTD SVG 20010904//EN"
 "http://www.w3.org/TR/2001/REC-SVG-20010904/DTD/svg10.dtd">
<svg version="1.0" xmlns="http://www.w3.org/2000/svg"
 width="300.000000pt" height="300.000000pt" viewBox="0 0 300.000000 300.000000"
 preserveAspectRatio="xMidYMid meet">
<metadata>
Created by potrace 1.16, written by Peter Selinger 2001-2019
</metadata>
<g transform="translate(0.000000,300.000000) scale(0.100000,-0.100000)"
fill="#000000" stroke="none">
<path d="M1436 2781 c-4 -6 -45 -279 -46 -308 0 -4 -88 -43 -97 -43 -6 0 -32
33 -58 73 -85 130 -90 137 -99 137 -11 0 -3 -84 23 -225 21 -119 16 -150 -19
-105 -11 14 -76 109 -144 212 -69 102 -130 189 -136 193 -21 13 -20 -25 5
-131 14 -59 23 -120 20 -134 -4 -17 7 -58 30 -118 34 -88 42 -122 29 -122 -4
0 -51 30 -106 68 l-100 67 -37 -41 c-20 -23 -54 -50 -77 -62 -55 -28 -60 -37
-68 -110 l-7 -64 75 -73 c69 -68 93 -105 66 -105 -6 0 -67 12 -137 26 -69 14
-137 24 -152 21 -148 -30 -211 -50 -211 -66 0 -5 26 -22 57 -37 32 -15 112
-53 178 -85 l120 -57 17 -54 16 -53 -26 -22 c-40 -33 -64 -58 -167 -173 -8 -8
-65 -35 -127 -59 -62 -24 -119 -48 -125 -54 -8 -6 -13 -34 -13 -73 0 -56 3
-65 26 -81 14 -10 45 -32 69 -50 52 -38 51 -38 300 21 158 38 255 54 255 42 0
-4 -28 -37 -62 -72 -38 -40 -58 -68 -52 -74 5 -5 34 -10 64 -12 50 -3 55 -5
53 -25 -1 -12 -16 -43 -33 -69 -16 -27 -28 -55 -25 -64 3 -8 -30 -67 -75 -135
-44 -66 -79 -127 -78 -135 4 -19 118 -58 149 -49 13 3 47 18 76 33 29 14 66
26 83 26 17 0 49 9 71 21 23 11 47 18 54 15 7 -2 16 -30 20 -61 7 -63 23 -75
95 -75 37 0 40 3 76 62 72 121 106 168 116 162 7 -5 9 -47 6 -120 -4 -86 -2
-120 9 -141 7 -14 20 -91 28 -170 8 -79 17 -148 20 -154 12 -19 26 -7 71 61
26 39 52 70 59 70 6 0 34 -46 61 -102 27 -56 54 -104 60 -106 15 -4 19 12 44
187 15 102 26 151 40 168 10 13 22 50 26 81 6 49 13 63 49 99 39 40 46 43 96
43 54 0 56 -1 119 -65 35 -36 72 -65 82 -65 9 0 53 -25 98 -56 45 -30 88 -53
95 -50 8 3 16 26 20 53 3 26 10 58 15 70 10 24 5 43 -34 147 -15 38 -26 76
-24 86 2 10 -13 50 -31 89 -44 89 -37 100 45 70 32 -12 74 -21 93 -21 23 1 88
-21 186 -63 164 -69 205 -83 205 -68 0 6 -56 63 -125 127 -69 65 -125 122
-125 127 0 13 63 11 155 -6 101 -18 158 -19 153 -3 -3 7 -74 49 -159 94 -234
126 -235 127 -243 176 -11 69 -5 71 235 63 113 -4 220 -4 238 0 27 6 36 16 57
63 13 31 23 61 20 67 -2 7 -41 27 -85 45 -45 18 -93 41 -107 52 -19 16 -60 25
-167 39 -78 11 -145 23 -149 27 -4 4 3 24 17 44 14 20 25 41 25 46 0 16 32 38
135 92 55 29 108 58 118 64 28 18 103 174 89 188 -8 8 -39 7 -119 -6 -131 -20
-153 -20 -153 -2 0 7 41 57 90 110 50 54 90 101 90 105 0 20 -47 44 -196 102
-37 14 -59 31 -83 64 -18 25 -39 45 -46 45 -8 0 -60 -35 -115 -77 -114 -87
-151 -113 -164 -113 -13 0 1 46 58 180 84 200 83 212 -17 157 -34 -18 -73 -37
-87 -40 -26 -7 -49 -36 -137 -167 -80 -118 -104 -132 -117 -68 -3 18 -17 44
-30 58 -13 14 -30 38 -37 55 -18 37 -41 42 -75 16 -53 -42 -61 -32 -89 122
-18 96 -19 99 -75 157 -54 58 -73 70 -84 51z m-46 -806 c0 -22 -4 -25 -40 -25
-22 0 -40 -3 -40 -7 0 -5 65 -160 144 -345 l143 -338 145 343 145 342 -39 3
c-33 3 -38 6 -38 28 l0 26 193 -4 c176 -3 195 -5 234 -25 52 -28 80 -67 95
-132 22 -95 -22 -202 -97 -238 l-34 -16 49 -23 c123 -57 156 -209 68 -310 -63
-71 -90 -79 -305 -82 l-193 -4 0 26 c0 23 4 26 35 26 l35 0 0 292 c0 160 -2
289 -4 287 -2 -2 -65 -150 -141 -329 -75 -179 -140 -329 -144 -333 -6 -6 -159
337 -236 531 -17 41 -35 56 -35 27 0 -22 -56 -81 -90 -95 l-30 -13 49 -23
c116 -53 157 -201 83 -298 -15 -19 -49 -47 -77 -63 -49 -28 -53 -28 -242 -31
l-193 -4 0 26 c0 23 4 26 35 26 l35 0 0 365 0 365 -35 0 c-31 0 -35 3 -35 25
l0 25 280 0 280 0 0 -25z"/>
<path d="M960 1780 l0 -172 108 3 c90 4 113 8 144 27 98 61 104 226 10 284
-30 18 -54 23 -149 26 l-113 5 0 -173z"/>
<path d="M1950 1780 l0 -172 108 3 c92 4 113 8 146 28 98 61 101 229 6 285
-26 16 -58 21 -147 24 l-113 5 0 -173z"/>
<path d="M960 1391 l0 -171 85 0 c113 0 179 15 220 51 42 38 59 79 53 133 -12
102 -85 147 -250 154 l-108 5 0 -172z"/>
<path d="M1950 1391 l0 -171 85 0 c124 0 180 15 229 60 40 37 41 41 41 102 0
121 -67 169 -247 176 l-108 5 0 -172z"/>
</g>
</svg>
